<svg width="21" height="20" viewBox="0 0 21 20" fill="none" xmlns="http://www.w3.org/2000/svg">
<path opacity="0.1" d="M10.3076 0C4.92632 0 0.563965 4.47715 0.563965 10C0.563965 15.5228 4.92632 20 10.3076 20C15.6888 20 20.0511 15.5228 20.0511 10C20.0449 4.47982 15.6862 0.00642897 10.3076 0Z" fill="white"/>
<path d="M15.9321 6.83334L10.3742 14.5742C10.2417 14.7547 10.044 14.8729 9.82566 14.9024C9.60732 14.9319 9.3866 14.87 9.2131 14.7308L5.24421 11.4742C4.89398 11.1865 4.83727 10.662 5.11754 10.3025C5.39781 9.94306 5.90894 9.88486 6.25917 10.1725L9.56874 12.89L14.6248 5.84751C14.7906 5.59217 15.0798 5.45099 15.3774 5.48004C15.675 5.50909 15.933 5.70365 16.049 5.98649C16.1649 6.26932 16.12 6.59466 15.9321 6.83334Z" fill="white"/>
</svg>
