<svg width="17" height="16" viewBox="0 0 17 16" fill="none" xmlns="http://www.w3.org/2000/svg">
<path d="M8.49331 1.33337C4.81331 1.33337 1.83331 4.32004 1.83331 8.00004C1.83331 11.68 4.81331 14.6667 8.49331 14.6667C12.18 14.6667 15.1666 11.68 15.1666 8.00004C15.1666 4.32004 12.18 1.33337 8.49331 1.33337ZM13.1133 5.33337H11.1466C10.9333 4.50004 10.6266 3.70004 10.2266 2.96004C11.4533 3.38004 12.4733 4.23337 13.1133 5.33337ZM8.49998 2.69337C9.05331 3.49337 9.48665 4.38004 9.77331 5.33337H7.22665C7.51331 4.38004 7.94665 3.49337 8.49998 2.69337ZM3.33998 9.33337C3.23331 8.90671 3.16665 8.46004 3.16665 8.00004C3.16665 7.54004 3.23331 7.09337 3.33998 6.66671H5.59331C5.53998 7.10671 5.49998 7.54671 5.49998 8.00004C5.49998 8.45337 5.53998 8.89337 5.59331 9.33337H3.33998ZM3.88665 10.6667H5.85331C6.06665 11.5 6.37331 12.3 6.77331 13.04C5.54665 12.62 4.52665 11.7734 3.88665 10.6667V10.6667ZM5.85331 5.33337H3.88665C4.52665 4.22671 5.54665 3.38004 6.77331 2.96004C6.37331 3.70004 6.06665 4.50004 5.85331 5.33337V5.33337ZM8.49998 13.3067C7.94665 12.5067 7.51331 11.62 7.22665 10.6667H9.77331C9.48665 11.62 9.05331 12.5067 8.49998 13.3067ZM10.06 9.33337H6.93998C6.87998 8.89337 6.83331 8.45337 6.83331 8.00004C6.83331 7.54671 6.87998 7.10004 6.93998 6.66671H10.06C10.12 7.10004 10.1666 7.54671 10.1666 8.00004C10.1666 8.45337 10.12 8.89337 10.06 9.33337ZM10.2266 13.04C10.6266 12.3 10.9333 11.5 11.1466 10.6667H13.1133C12.4733 11.7667 11.4533 12.62 10.2266 13.04V13.04ZM11.4066 9.33337C11.46 8.89337 11.5 8.45337 11.5 8.00004C11.5 7.54671 11.46 7.10671 11.4066 6.66671H13.66C13.7666 7.09337 13.8333 7.54004 13.8333 8.00004C13.8333 8.46004 13.7666 8.90671 13.66 9.33337H11.4066Z" fill="#323232"/>
</svg>
