<svg width="64" height="64" viewBox="0 0 64 64" fill="none" xmlns="http://www.w3.org/2000/svg">
<g clip-path="url(#clip0_166_649)">
<path d="M25.9085 22.7023C25.6335 22.7023 25.3627 22.5898 25.1751 22.3857C25.0335 22.2357 24.9501 22.0691 24.8209 21.8149C24.6126 21.4024 24.2251 20.6316 23.4293 19.6232C23.1 19.2066 22.9709 19.0691 22.8876 18.9857C22.8418 18.9441 22.7543 18.8607 22.6293 18.7565C22.4585 18.9231 22.2668 19.069 22.0668 19.1981C21.1835 19.7481 20.3126 19.7273 19.6751 19.7106H19.6335C19.6127 19.7106 17.7168 19.669 15.696 19.8065L15.6002 19.8148C14.9335 19.8606 14.3043 19.9024 13.8334 20.1524C13.4168 20.3732 13.1543 20.8899 12.9876 21.8274C12.9208 22.2024 12.6542 22.5148 12.3001 22.6398C11.8626 22.794 11.3959 22.6482 11.1085 22.269C10.6793 21.7024 10.596 20.944 10.5418 20.444V20.4274C10.4418 19.519 10.3168 17.894 10.6086 17.2065C10.7669 16.8315 11.2377 15.8566 12.2253 14.9023C14.1461 13.044 17.2919 12.319 17.9045 12.194C19.0961 11.9481 20.2378 11.8564 21.2961 11.9315C22.042 11.9814 22.6712 12.0773 23.2294 12.219C24.0044 12.4149 24.617 12.8024 25.0003 13.3357C25.1962 13.6107 25.3128 13.8815 25.417 14.1232C25.5003 14.3148 25.5711 14.4857 25.6503 14.5689C25.7836 14.7106 25.9795 14.8522 26.1836 14.9981C26.4295 15.173 26.7086 15.3731 26.9628 15.6314C27.5837 16.2648 28.2836 17.3272 28.3961 18.4148C28.5003 19.444 28.0627 20.319 27.6669 20.969C27.6211 21.0441 27.4127 21.369 27.2044 21.6731C26.8085 22.2522 26.546 22.6356 26.021 22.694C25.9793 22.7023 25.946 22.7023 25.9085 22.7023ZM22.4418 16.4565C22.8626 16.4565 23.196 16.6898 23.3918 16.8273L23.4084 16.8398C23.8376 17.1398 24.1418 17.4189 24.2876 17.5607C24.4459 17.7149 24.6252 17.9149 25.0002 18.3898C25.4335 18.9398 25.7627 19.4232 26.0127 19.8356C26.3127 19.319 26.4335 18.944 26.4002 18.619C26.3544 18.1691 25.9877 17.5023 25.5293 17.0357C25.396 16.8982 25.2127 16.7691 25.0168 16.6274C24.7543 16.44 24.4544 16.2274 24.1836 15.9358C23.8628 15.5941 23.7002 15.2107 23.571 14.9066C23.5001 14.74 23.4377 14.5942 23.3668 14.4983C23.2668 14.3566 23.0334 14.2316 22.7293 14.1566C22.2919 14.0441 21.7752 13.9691 21.1502 13.9274C20.2751 13.865 19.3169 13.944 18.3002 14.1524C16.8752 14.4482 14.7877 15.1982 13.6044 16.3441C12.9003 17.0232 12.5627 17.7108 12.4585 17.9524C12.4377 18.0566 12.4169 18.3066 12.4211 18.6941C12.5627 18.5816 12.7169 18.4815 12.8878 18.39C13.7337 17.94 14.6503 17.8774 15.4586 17.8192L15.5545 17.8108C17.6753 17.665 19.6003 17.7067 19.6795 17.7108H19.7253C20.217 17.7233 20.6378 17.7316 21.0128 17.4983C21.2087 17.3774 21.3753 17.2025 21.5128 16.9733C21.667 16.7191 21.917 16.54 22.2086 16.4774C22.2877 16.4648 22.3668 16.4565 22.4418 16.4565ZM23.2252 18.0065C23.2252 18.0107 23.221 18.0107 23.221 18.0148C23.221 18.0148 23.221 18.0107 23.2252 18.0065Z" fill="#EF446C"/>
<path d="M19.3252 33.4522C18.8668 33.4522 18.3501 33.4064 17.7918 33.2856C17.2918 33.1772 16.0002 32.8064 14.7293 31.7689C14.1209 31.2689 13.0043 30.1731 12.371 28.4106C12.2252 28.0064 12.1251 27.5815 12.0585 27.2439C11.0627 26.7356 10.3002 25.7522 10.0418 24.5938C9.74187 23.2354 10.2001 21.9063 11.3002 20.9439C11.7168 20.5813 12.346 20.623 12.7127 21.0397C13.0752 21.4564 13.0335 22.0856 12.6168 22.4522C11.9252 23.0565 11.896 23.7148 11.996 24.1647C12.1418 24.823 12.6501 25.3981 13.2294 25.5689C13.6085 25.6772 13.8877 26.0022 13.9419 26.3938C13.9877 26.7397 14.1002 27.298 14.2544 27.7313C14.7419 29.0897 15.6336 29.923 15.996 30.2188C16.9584 31.0063 17.9418 31.2688 18.221 31.3313C19.2376 31.5564 20.0751 31.4105 20.3877 31.3355C21.2377 31.1354 21.821 30.7354 22.0668 30.5646C22.2459 30.4438 22.7127 30.0938 23.1919 29.5272C23.8877 28.7064 24.4002 27.5813 24.6794 26.273C24.767 25.873 25.0877 25.5647 25.4919 25.4938C25.9127 25.423 26.4794 24.5897 26.5419 23.7188C26.6043 22.8396 26.1502 22.6938 26.0002 22.648C25.4752 22.4772 25.1836 21.9146 25.3544 21.3896C25.5252 20.8647 26.0878 20.573 26.6128 20.7438C27.9086 21.1604 28.6461 22.3562 28.5378 23.8646C28.4419 25.1896 27.6794 26.6647 26.5044 27.2438C26.1336 28.6521 25.5335 29.8521 24.7211 30.8147C24.1085 31.5397 23.5044 31.998 23.2002 32.2064C22.8877 32.4189 22.0627 32.9897 20.8461 33.2772C20.521 33.3607 19.9877 33.4522 19.3252 33.4522Z" fill="#EF446C"/>
<path d="M15.3876 35.9273C15.2376 35.9273 15.0877 35.894 14.946 35.8231C14.4501 35.5773 14.2502 34.9772 14.4961 34.4815C14.6793 34.1065 14.9961 33.3606 15.0169 32.544C15.0252 32.2523 14.9878 32.1273 14.921 31.8815C14.9002 31.8064 14.8752 31.7273 14.8543 31.6315C14.7168 31.0982 15.0376 30.5524 15.5752 30.4149C16.1085 30.2774 16.6543 30.5981 16.7918 31.1358C16.8085 31.2025 16.8293 31.2691 16.8459 31.3358C16.9335 31.6483 17.0334 31.9983 17.0167 32.5942C16.9834 33.79 16.5458 34.8441 16.2875 35.365C16.1085 35.7232 15.7543 35.9273 15.3876 35.9273Z" fill="#EF446C"/>
<path d="M23.1001 36.1607C22.7501 36.1607 22.4085 35.9774 22.2251 35.6482C21.8334 34.9482 21.3584 33.8523 21.3251 32.5981C21.3084 32.0022 21.4085 31.6482 21.4959 31.3398C21.5042 31.3106 21.5125 31.2815 21.5208 31.2522C21.6667 30.7189 22.2208 30.4063 22.7501 30.5564C23.2834 30.7022 23.596 31.2564 23.4459 31.7857C23.4375 31.819 23.4292 31.8481 23.4209 31.8815C23.35 32.1274 23.3167 32.2524 23.325 32.544C23.3458 33.3899 23.6875 34.1649 23.9708 34.6689C24.2417 35.1523 24.0709 35.7605 23.5875 36.0315C23.4334 36.119 23.2667 36.1607 23.1001 36.1607Z" fill="#EF446C"/>
<path d="M35.0752 52.094H3.42513C2.87516 52.094 2.42509 51.6482 2.42509 51.0981C2.41677 48.8314 2.52512 43.1648 3.65849 39.5022C3.96677 38.5105 4.34178 37.6981 4.83764 36.948C5.25428 36.3189 6.45437 34.7397 8.5918 33.6522C10.5501 32.6563 12.421 32.5063 13.646 32.5605C13.8876 32.5689 14.1127 32.6647 14.2876 32.8314L19.1209 37.3688L24.2293 32.8147C24.4001 32.6606 24.621 32.573 24.8543 32.5605C26.0668 32.5106 27.921 32.6564 29.8627 33.6313C30.3544 33.8772 30.5543 34.4814 30.3085 34.973C30.0626 35.4646 29.4584 35.6646 28.9668 35.4187C27.5835 34.7229 26.2502 34.5562 25.2877 34.552L19.7709 39.4689C19.3834 39.8148 18.8 39.8065 18.421 39.4523L13.2002 34.5481C12.2251 34.5523 10.8877 34.7272 9.49597 35.4315C7.7835 36.3023 6.83341 37.5523 6.50432 38.0481C6.10849 38.644 5.82102 39.273 5.56685 40.0898C4.64187 43.069 4.45846 47.7314 4.42516 50.0897H35.071C35.6251 50.0897 36.071 50.5355 36.071 51.0898C36.071 51.644 35.6293 52.094 35.0752 52.094Z" fill="#EF446C"/>
<path d="M9.55008 52.094C8.99595 52.094 8.55005 51.6482 8.55005 51.094V43.6481C8.55005 43.094 8.99583 42.6481 9.55008 42.6481C10.1042 42.6481 10.5501 43.0938 10.5501 43.6481V51.094C10.5501 51.6481 10.1042 52.094 9.55008 52.094Z" fill="#EF446C"/>
<path d="M63.0002 52.094H1.00016C0.446025 52.094 0.00012207 51.6483 0.00012207 51.094C0.00012207 50.5398 0.445899 50.094 1.00016 50.094H63.0002C63.5543 50.094 64.0002 50.5398 64.0002 51.094C64.0002 51.6483 63.5543 52.094 63.0002 52.094Z" fill="#EF446C"/>
<path d="M54.6294 52.094H31.0961C28.4377 52.094 26.2753 49.9315 26.2753 47.2732C26.2753 46.7191 26.721 46.2732 27.2753 46.2732H58.4544C59.0086 46.2732 59.4545 46.719 59.4545 47.2732C59.4502 49.9315 57.2878 52.094 54.6294 52.094ZM28.4585 48.2731C28.8626 49.3356 29.8918 50.094 31.1001 50.094H54.6334C55.8376 50.094 56.8667 49.3356 57.275 48.2731H28.4585Z" fill="#EF446C"/>
<path d="M56.3085 48.2732H29.4126C28.8585 48.2732 28.4126 47.8274 28.4126 47.2732V31.8149C28.4126 30.3441 29.6084 29.1482 31.0793 29.1482H54.6418C56.1126 29.1482 57.3085 30.344 57.3085 31.8149V47.2733C57.3085 47.8274 56.8626 48.2732 56.3085 48.2732ZM30.4125 46.2733H55.3084V31.8149C55.3084 31.4482 55.0085 31.1483 54.6418 31.1483H31.0793C30.7126 31.1483 30.4127 31.4482 30.4127 31.8149V46.2733H30.4125Z" fill="#EF446C"/>
<path d="M38.375 24.9024C38.1625 24.9024 37.95 24.8357 37.7666 24.6982L32.4583 20.6399C32.2125 20.4525 32.0667 20.1565 32.0667 19.8441C32.0667 19.5316 32.2125 19.2399 32.4583 19.0483L37.7708 14.99C38.2082 14.6566 38.8374 14.74 39.1708 15.1774C39.5042 15.6149 39.4208 16.2441 38.9834 16.5775L34.7125 19.8399L38.9834 23.1024C39.4208 23.4358 39.5084 24.0648 39.1708 24.5024C38.975 24.7649 38.6791 24.9024 38.375 24.9024Z" fill="#EF446C"/>
<path d="M47.3459 24.9024C47.046 24.9024 46.7459 24.769 46.5501 24.5107C46.2167 24.0733 46.3001 23.4441 46.7376 23.1107L51.0084 19.8482L46.7376 16.5858C46.3001 16.2524 46.2126 15.6233 46.5501 15.1857C46.8835 14.7483 47.5126 14.6649 47.9501 14.9983L53.2626 19.0566C53.5085 19.244 53.6543 19.5399 53.6543 19.8524C53.6543 20.1648 53.5085 20.4566 53.2626 20.6482L47.9501 24.7065C47.7709 24.8358 47.5583 24.9024 47.3459 24.9024Z" fill="#EF446C"/>
<path d="M41.1249 27.0566C41.0373 27.0566 40.9457 27.0441 40.854 27.0191C40.3207 26.8691 40.0123 26.3192 40.1582 25.7857L43.6291 13.3649C43.7791 12.8316 44.329 12.5232 44.8625 12.6691C45.3958 12.8191 45.7041 13.3691 45.5583 13.9025L42.0874 26.3233C41.9666 26.7649 41.5624 27.0566 41.1249 27.0566Z" fill="#EF446C"/>
</g>
<defs>
<clipPath id="clip0_166_649">
<rect width="64" height="64" fill="white" transform="translate(0.00012207)"/>
</clipPath>
</defs>
</svg>
