<svg width="64" height="64" viewBox="0 0 64 64" fill="none" xmlns="http://www.w3.org/2000/svg">
<path d="M16.0782 52.4052C18.2224 54.5502 20.7778 56.2399 23.5911 57.3729C26.4043 58.5059 29.4175 59.0588 32.4498 58.9986C35.482 58.9384 38.4709 58.2662 41.2369 57.0224C44.003 55.7786 46.4893 53.9888 48.5466 51.7604C50.6039 49.532 52.1898 46.9109 53.2092 44.0545C54.2285 41.1981 54.6603 38.1651 54.4786 35.1377C54.2969 32.1103 53.5055 29.1508 52.1518 26.4368C50.7982 23.7228 48.9102 21.3102 46.6011 19.3439C49.275 14.8193 49.1618 10.4283 46.2724 7.53882C45.4659 6.72999 44.507 6.08915 43.4512 5.65337C42.3954 5.2176 41.2636 4.99555 40.1214 5.00007C38.9792 4.99546 37.8474 5.21744 36.7915 5.65317C35.7357 6.08889 34.7767 6.7297 33.9701 7.53851C32.2559 9.25228 31.5205 11.4949 31.7618 13.9797C25.7699 14.3495 20.2111 16.7656 16.0913 20.798C13.9936 22.8352 12.3275 25.2739 11.1922 27.9686C10.0569 30.6633 9.47564 33.5591 9.48312 36.4832C9.47505 39.4414 10.0538 42.3718 11.1858 45.1048C12.3179 47.8378 13.9808 50.3192 16.0782 52.4052ZM32.0003 57.3128C27.7783 57.3174 23.6558 56.0316 20.1851 53.6277C20.6749 52.8059 21.4844 52.249 22.4051 51.6164C22.9816 51.2358 23.5349 50.8211 24.062 50.3745L27.532 55.9564C27.6077 56.0782 27.7132 56.1787 27.8386 56.2484C27.964 56.3181 28.1051 56.3547 28.2485 56.3547C28.392 56.3547 28.533 56.3181 28.6584 56.2484C28.7838 56.1787 28.8893 56.0782 28.9651 55.9564L31.9676 51.1259C32.7836 52.054 33.817 52.4254 34.8235 52.7861C36.2629 53.3019 37.7476 53.8355 39.2025 56.0282C36.8969 56.88 34.4582 57.315 32.0003 57.3128ZM23.4103 46.1298C22.4942 44.6561 19.7781 39.5747 23.2904 36.0625C24.6064 34.7494 26.3895 34.0119 28.2485 34.0119C30.1076 34.0119 31.8907 34.7494 33.2066 36.0625C36.6232 39.4788 34.2613 44.241 33.0867 46.1298L28.2485 53.9127L23.4103 46.1298ZM47.8599 49.9707C45.0846 48.1059 41.4609 45.5952 41.039 42.7071C40.8386 41.336 41.3479 39.9333 42.5962 38.4191C43.7367 37.0362 43.5744 35.2771 43.4558 33.9929C43.4136 33.5354 43.3257 32.5835 43.4786 32.4658C43.527 32.4283 44.03 32.13 46.7556 33.1246C47.9549 33.5622 48.3744 34.9809 48.8602 36.6241C49.4236 38.5301 50.0605 40.6829 52.1798 41.6562C51.3912 44.7203 49.9137 47.564 47.8599 49.9707ZM35.1629 8.73221C36.4808 7.4228 38.2632 6.6879 40.121 6.6879C41.9789 6.6879 43.7613 7.4228 45.0792 8.73221C48.4956 12.1486 46.1339 16.9107 44.9592 18.7996L40.1214 26.5821L35.2832 18.7993C34.3667 17.3255 31.6505 12.2441 35.1629 8.73179V8.73221ZM27.0839 16.4374C27.0371 17.0166 27.0134 17.6449 27.0134 18.3163C27.0134 21.6175 30.5597 22.1694 31.725 22.3509C32.5514 22.4797 32.8446 22.6732 32.9283 22.7451C32.7646 23.2022 31.1764 24.2459 29.6571 24.2459C29.6411 24.2459 29.6249 24.2459 29.6089 24.2459C25.2401 24.1813 23.9212 24.663 23.7289 26.3923C23.7229 26.4644 23.7127 26.5361 23.6982 26.607C23.6572 26.6435 23.6099 26.6721 23.5585 26.6914C21.1808 27.7708 17.7726 28.5793 15.3379 27.6114C14.9477 27.4565 14.297 27.3235 13.4 27.2148C16.0811 22.007 20.9918 18.0669 27.0836 16.4369L27.0839 16.4374ZM12.6572 28.8296C13.8116 28.9446 14.4748 29.0835 14.7139 29.1785C15.7174 29.561 16.7844 29.7497 17.8582 29.7346C20.6512 29.7346 23.307 28.6575 24.2552 28.227C25.2732 27.765 25.3591 26.9931 25.4049 26.5782C25.4108 26.5061 25.421 26.4343 25.4357 26.3634C25.4778 26.3137 25.9562 25.8782 29.5829 25.9325C31.6863 25.9678 34.4786 24.5154 34.6203 22.8439C34.675 22.1987 34.4052 21.0602 31.9836 20.6831C29.0976 20.2336 28.6997 19.2798 28.6997 18.3159C28.6955 17.5561 28.7345 16.7968 28.8166 16.0414C29.8826 15.8406 30.9607 15.7105 32.0439 15.6522H32.0621C32.4516 17.0803 33.0539 18.4417 33.8485 19.6906L39.4042 28.6258C39.48 28.7477 39.5855 28.8482 39.7109 28.9179C39.8363 28.9876 39.9774 29.0242 40.1208 29.0242C40.2643 29.0242 40.4054 28.9876 40.5308 28.9179C40.6562 28.8482 40.7617 28.7477 40.8374 28.6258L45.7043 20.7966C48.3832 23.1374 50.4181 26.1252 51.6151 29.4753C52.8121 32.8254 53.1314 36.4262 52.5424 39.9347C51.3785 39.188 50.9393 37.7057 50.4781 36.1457C49.9408 34.3282 49.3318 32.2684 47.3338 31.5393C44.7225 30.5864 43.307 30.4676 42.4484 31.1289C41.5597 31.8136 41.6692 33.0004 41.7752 34.148C41.8818 35.3037 41.9921 36.4989 41.294 37.3455C39.7472 39.2214 39.0995 41.1074 39.3689 42.951C39.8847 46.4816 43.6943 49.1989 46.7016 51.2252C44.984 52.9386 42.9815 54.3403 40.7837 55.3676C38.968 52.481 36.9932 51.7716 35.3928 51.198C34.2903 50.803 33.4824 50.5113 32.9266 49.5836L34.5198 47.0207C37.4079 42.3749 37.3631 37.8323 34.3999 34.8691C32.7671 33.2401 30.5549 32.3253 28.2485 32.3253C25.9421 32.3253 23.7299 33.2401 22.0971 34.8691C19.1341 37.8328 19.0892 42.375 21.9772 47.0207L23.1564 48.9176C22.6217 49.3965 22.0511 49.8338 21.4496 50.2254C20.492 50.8832 19.5089 51.5612 18.8319 52.6095C15.9088 50.221 13.6866 47.0859 12.401 43.5368C12.8805 43.1115 13.4156 42.6568 14.0353 42.1487C14.1753 42.0338 14.321 41.9156 14.4701 41.7945C16.2976 40.312 18.3689 38.6315 17.9056 36.961C17.5266 35.5943 15.7329 35.1823 14.4053 34.9929C14.3135 34.9637 13.7262 34.7339 11.4464 33.121C11.689 31.6499 12.0951 30.2105 12.6572 28.8296ZM14.1465 36.6608C16.0948 36.9365 16.2778 37.4076 16.279 37.4122C16.2803 37.4167 16.3536 37.7221 15.5954 38.5457C15.0033 39.1891 14.155 39.8772 13.4065 40.4843C13.255 40.6072 13.107 40.7274 12.9648 40.8441C12.5624 41.1739 12.1948 41.4824 11.8524 41.7759C11.3986 40.0483 11.1693 38.2694 11.1702 36.4832C11.1702 35.9918 11.1875 35.5051 11.2222 35.0231C13.4642 36.5639 13.9018 36.6261 14.147 36.6608H14.1465ZM38.7054 16.4896C38.7054 16.2658 38.6165 16.0512 38.4583 15.893C38.3 15.7347 38.0854 15.6458 37.8616 15.6458C37.6379 15.6458 37.4232 15.7347 37.265 15.893C37.1068 16.0512 37.0179 16.2658 37.0179 16.4896C37.0188 17.1658 37.2402 17.8233 37.6483 18.3625C38.0564 18.9017 38.6292 19.2932 39.2798 19.4777V19.6645C39.2798 19.8883 39.3687 20.1029 39.5269 20.2611C39.6851 20.4194 39.8997 20.5083 40.1235 20.5083C40.3473 20.5083 40.5619 20.4194 40.7201 20.2611C40.8784 20.1029 40.9673 19.8883 40.9673 19.6645V19.4777C41.6183 19.294 42.1915 18.9027 42.5998 18.3633C43.008 17.8239 43.2289 17.166 43.2289 16.4895C43.2289 15.8131 43.008 15.1551 42.5998 14.6157C42.1915 14.0763 41.6183 13.685 40.9673 13.5013V10.8287C41.1452 10.9602 41.2898 11.1315 41.3896 11.329C41.4893 11.5265 41.5414 11.7446 41.5416 11.9658C41.5416 12.1896 41.6305 12.4042 41.7887 12.5624C41.9469 12.7206 42.1615 12.8095 42.3853 12.8095C42.6091 12.8095 42.8237 12.7206 42.9819 12.5624C43.1402 12.4042 43.2291 12.1896 43.2291 11.9658C43.2281 11.2896 43.0068 10.632 42.5987 10.0928C42.1906 9.55365 41.6179 9.16215 40.9673 8.97763V8.79064C40.9673 8.56686 40.8784 8.35225 40.7201 8.19401C40.5619 8.03578 40.3473 7.94688 40.1235 7.94688C39.8997 7.94688 39.6851 8.03578 39.5269 8.19401C39.3687 8.35225 39.2798 8.56686 39.2798 8.79064V8.97763C38.6287 9.16125 38.0553 9.55251 37.647 10.0919C37.2387 10.6313 37.0177 11.2893 37.0177 11.9658C37.0177 12.6423 37.2387 13.3003 37.647 13.8397C38.0553 14.3791 38.6287 14.7703 39.2798 14.9539V17.6265C39.1018 17.4951 38.9572 17.3238 38.8574 17.1263C38.7577 16.9289 38.7056 16.7108 38.7054 16.4896ZM40.9673 15.3524C41.1453 15.4838 41.2899 15.6551 41.3896 15.8526C41.4893 16.0501 41.5412 16.2682 41.5412 16.4895C41.5412 16.7107 41.4893 16.9288 41.3896 17.1263C41.2899 17.3238 41.1453 17.4952 40.9673 17.6265V15.3524ZM38.7054 11.9658C38.7056 11.7446 38.7577 11.5264 38.8574 11.329C38.9572 11.1315 39.1018 10.9602 39.2798 10.8287V13.1029C39.1018 12.9714 38.9572 12.8001 38.8574 12.6026C38.7577 12.4051 38.7056 12.187 38.7054 11.9658ZM29.0948 46.9952V46.8081C29.7459 46.6244 30.3191 46.2331 30.7274 45.6938C31.1356 45.1544 31.3566 44.4964 31.3566 43.8199C31.3566 43.1435 31.1356 42.4855 30.7274 41.9461C30.3191 41.4068 29.7459 41.0155 29.0948 40.8318V38.1596C29.2727 38.2911 29.4174 38.4625 29.5171 38.66C29.6168 38.8574 29.6689 39.0755 29.6691 39.2968C29.6691 39.5206 29.758 39.7352 29.9162 39.8934C30.0745 40.0516 30.2891 40.1405 30.5128 40.1405C30.7366 40.1405 30.9512 40.0516 31.1095 39.8934C31.2677 39.7352 31.3566 39.5206 31.3566 39.2968C31.3557 38.6205 31.1344 37.963 30.7263 37.4238C30.3181 36.8846 29.7454 36.4931 29.0948 36.3085V36.1216C29.0948 35.8979 29.0059 35.6832 28.8477 35.525C28.6894 35.3668 28.4748 35.2779 28.2511 35.2779C28.0273 35.2779 27.8127 35.3668 27.6544 35.525C27.4962 35.6832 27.4073 35.8979 27.4073 36.1216V36.3085C26.7562 36.4922 26.1829 36.8835 25.7746 37.4229C25.3663 37.9622 25.1454 38.6202 25.1454 39.2967C25.1454 39.9732 25.3663 40.6312 25.7746 41.1706C26.1829 41.71 26.7562 42.1013 27.4073 42.2849V44.9575C27.2293 44.8261 27.0847 44.6547 26.9849 44.4572C26.8852 44.2597 26.8331 44.0416 26.8329 43.8204C26.8329 43.5966 26.744 43.382 26.5858 43.2237C26.4276 43.0655 26.2129 42.9766 25.9892 42.9766C25.7654 42.9766 25.5508 43.0655 25.3925 43.2237C25.2343 43.382 25.1454 43.5966 25.1454 43.8204C25.1464 44.4965 25.3678 45.154 25.7759 45.6931C26.1841 46.2322 26.7568 46.6236 27.4073 46.8081V46.9951C27.4073 47.2189 27.4962 47.4335 27.6544 47.5917C27.8127 47.75 28.0273 47.8389 28.2511 47.8389C28.4748 47.8389 28.6894 47.75 28.8477 47.5917C29.0059 47.4335 29.0948 47.2189 29.0948 46.9951V46.9952ZM29.0948 42.6831C29.2729 42.8144 29.4176 42.9857 29.5174 43.1832C29.6171 43.3807 29.6691 43.5989 29.6691 43.8201C29.6691 44.0414 29.6171 44.2595 29.5174 44.457C29.4176 44.6545 29.2729 44.8258 29.0948 44.9571V42.6831ZM27.4073 40.4335C27.2293 40.3022 27.0846 40.1308 26.9849 39.9333C26.8852 39.7358 26.8333 39.5177 26.8333 39.2964C26.8333 39.0752 26.8852 38.857 26.9849 38.6595C27.0846 38.462 27.2293 38.2907 27.4073 38.1593V40.4335Z" fill="#EF446C"/>
</svg>
