<svg width="64" height="64" viewBox="0 0 64 64" fill="none" xmlns="http://www.w3.org/2000/svg">
<path d="M19.0001 47H9.00012V57H19.0001V47ZM17.0001 55H11.0001V49H17.0001V55Z" fill="#EF446C"/>
<path d="M31.0001 57V41H21.0001V57H31.0001ZM23.0001 43H29.0001V55H23.0001V43Z" fill="#EF446C"/>
<path d="M43.0001 57V35H33.0001V57H43.0001ZM35.0001 37H41.0001V55H35.0001V37Z" fill="#EF446C"/>
<path d="M45.0001 57H55.0001V27H45.0001V57ZM47.0001 29H53.0001V55H47.0001V29Z" fill="#EF446C"/>
<path d="M45.6837 16.9487L49.5783 18.2468L33.0001 27.8447V19.1371C33.1286 19.1638 33.2592 19.1787 33.3903 19.1816C35.2409 19.1816 37.5465 16.9902 39.6237 14.7422C41.3335 12.887 42.7417 10.775 43.797 8.4834L44.3937 7.19239L42.9772 7.06739C37.9718 6.62354 33.7653 8.35645 32.0104 11.5859L32.0001 11.6074L31.9899 11.5859C30.235 8.35694 26.0348 6.6245 21.0231 7.06738L19.6066 7.19238L20.2033 8.48338C21.2586 10.775 22.6668 12.887 24.3766 14.7422C26.4538 16.9907 28.7594 19.1816 30.61 19.1816C30.7411 19.1787 30.8717 19.1638 31.0001 19.1371V29.0026L13.4991 39.1348L14.5011 40.8652L50.2165 20.1879L49.0514 23.6836L50.9489 24.3164L53.2653 17.3677L46.3166 15.0513L45.6837 16.9487ZM33.7682 12.541C34.9494 10.3667 37.819 9.0488 41.2975 9.00242C40.434 10.5867 39.3785 12.0586 38.1549 13.3847C34.4552 17.3882 33.4264 17.1963 33.3532 17.1772C32.9171 16.8877 32.7335 14.4453 33.7682 12.541ZM30.6471 17.1772C30.5749 17.1987 29.5431 17.3877 25.8454 13.3848C24.6218 12.0586 23.5664 10.5867 22.7028 9.00244C26.1808 9.04884 29.0514 10.3672 30.2321 12.541C31.2667 14.4453 31.0831 16.8877 30.6471 17.1772Z" fill="#EF446C"/>
</svg>
